<?xml version="1.0" encoding="utf-8"?>
<!-- Generator: Adobe Illustrator 24.0.3, SVG Export Plug-In . SVG Version: 6.00 Build 0)  -->
<svg version="1.1" id="Layer_1" xmlns="http://www.w3.org/2000/svg" xmlns:xlink="http://www.w3.org/1999/xlink" x="0px" y="0px"
	 viewBox="0 0 417.63 151.96" style="enable-background:new 0 0 417.63 151.96;" xml:space="preserve">
<style type="text/css">
	.st0{fill:#FFFFFF;}
</style>
<rect x="8.41" y="18.73" width="400.35" height="114.81"/>
<rect x="8.41" y="8.1" width="400.35" height="5.96"/>
<rect x="8.41" y="138.21" width="400.35" height="5.96"/>
<g>
	<path class="st0" d="M83.82,38.44v63.23h12.5v15.82H63.26V38.44H83.82z"/>
	<path class="st0" d="M111.3,38.44h34.28v15.82h-13.72v14.99h12.84v15.04h-12.84v17.38h15.09v15.82H111.3V38.44z"/>
	<path class="st0" d="M198.39,38.44l11.75,79.05h-21.01l-1.1-14.21h-7.35l-1.24,14.21h-21.25l10.49-79.05H198.39z M187.49,89.27
		c-1.04-8.95-2.08-20.02-3.13-33.2c-2.09,15.14-3.41,26.21-3.95,33.2H187.49z"/>
	<path class="st0" d="M270.8,67.54h-20.56v-7.18c0-4.52-0.2-7.36-0.59-8.5c-0.39-1.14-1.32-1.71-2.78-1.71
		c-1.27,0-2.13,0.49-2.59,1.46c-0.46,0.98-0.68,3.48-0.68,7.52v37.94c0,3.55,0.23,5.88,0.68,7.01c0.46,1.12,1.37,1.68,2.73,1.68
		c1.5,0,2.51-0.63,3.05-1.9s0.81-3.74,0.81-7.42v-9.38h-4.15V75.06h24.07v42.43h-12.92l-1.9-5.66c-1.4,2.44-3.17,4.27-5.3,5.49
		c-2.13,1.22-4.65,1.83-7.55,1.83c-3.45,0-6.69-0.84-9.7-2.51c-3.01-1.68-5.3-3.75-6.87-6.23c-1.56-2.47-2.54-5.07-2.93-7.79
		c-0.39-2.72-0.59-6.79-0.59-12.23V66.91c0-7.55,0.41-13.04,1.22-16.46c0.81-3.42,3.15-6.55,7.01-9.4
		c3.86-2.85,8.85-4.27,14.97-4.27c6.02,0,11.02,1.24,14.99,3.71c3.97,2.47,6.56,5.41,7.76,8.81c1.2,3.4,1.81,8.34,1.81,14.82V67.54z
		"/>
	<path class="st0" d="M335.49,38.44v52.83c0,5.99-0.2,10.2-0.59,12.62c-0.39,2.43-1.55,4.92-3.47,7.47
		c-1.92,2.56-4.45,4.49-7.59,5.81c-3.14,1.32-6.84,1.98-11.11,1.98c-4.72,0-8.89-0.78-12.5-2.34s-6.32-3.6-8.11-6.1
		c-1.79-2.51-2.85-5.15-3.17-7.93c-0.33-2.78-0.49-8.63-0.49-17.55V38.44h20.56v59.28c0,3.45,0.19,5.66,0.56,6.62
		c0.37,0.96,1.13,1.44,2.27,1.44c1.3,0,2.14-0.53,2.51-1.59c0.37-1.06,0.56-3.56,0.56-7.5V38.44H335.49z"/>
	<path class="st0" d="M353.45,38.44h34.28v15.82h-13.72v14.99h12.84v15.04h-12.84v17.38h15.09v15.82h-35.64V38.44z"/>
</g>
<g>
	<path class="st0" d="M40.48,39.21v4.11h-3.17v16.44h-5.34V43.32H28.8v-4.11H40.48z"/>
	<path class="st0" d="M40.78,67.81v20.55h-5.34v-8.63h-1.6v8.63h-5.34V67.81h5.34v7.35h1.6v-7.35H40.78z"/>
	<path class="st0" d="M30.31,96.41h8.91v4.11h-3.57v3.9h3.34v3.91h-3.34v4.52h3.92v4.11h-9.27V96.41z"/>
</g>
</svg>
