<?xml version="1.0" encoding="utf-8"?>
<!-- Generator: Adobe Illustrator 25.3.1, SVG Export Plug-In . SVG Version: 6.00 Build 0)  -->
<svg version="1.1" xmlns="http://www.w3.org/2000/svg" xmlns:xlink="http://www.w3.org/1999/xlink" x="0px" y="0px"
	 viewBox="0 0 1000 1000" style="enable-background:new 0 0 1000 1000;" xml:space="preserve">
<style type="text/css">
	.st0{display:none;}
	.st1{display:inline;}
	.st2{fill:#FFFFFF;}
	.st3{fill:#D3193C;}
	.st4{fill:#212121;}
	.st5{fill:none;}
	.st6{fill:#F6B6C2;}
	.st7{fill:#BF909A;}
	.st8{fill:none;stroke:#212121;stroke-width:10;stroke-linecap:round;stroke-linejoin:round;stroke-miterlimit:10;}
	.st9{fill:#F5A42C;}
</style>
<g id="Layer_4" class="st0">
	<rect class="st1" width="1000" height="1000"/>
</g>
<g id="Layer_2">
	<circle class="st2" cx="497.37" cy="572.47" r="390"/>
	<circle class="st3" cx="497.37" cy="572.47" r="382.13"/>
	<circle class="st2" cx="497.37" cy="572.47" r="373.03"/>
	<circle class="st3" cx="497.37" cy="572.47" r="365"/>
	<g>
		<path class="st2" d="M228.05,375.31l12.96-15.41c8.05-9.57,17.54-17.57,31.05-6.21c6.83,5.74,7.49,11.95,4.22,17.85
			c6.14-6.01,14.07-5.59,22.09,1.16c12.39,10.42,11.42,21.14,2.01,32.33l-15.33,18.23L228.05,375.31z M263.83,378.48
			c4.56-5.42,2.64-8.71-1.58-12.26c-3.52-2.96-8.23-3.07-11.31,0.58l-1.95,2.32l13.3,11.19L263.83,378.48z M288.66,399.25
			c4.32-5.14,3.13-9.15-1.87-13.35c-6.12-5.15-9.58-5.18-13.9-0.04l-1.66,1.97l15.83,13.32L288.66,399.25z"/>
		<path class="st2" d="M312.17,359.86L281.41,318L296,307.27l32.62,44.38c1.91,2.59,4.74,5.99,8.15,3.48
			c3.41-2.51,1.02-6.22-0.89-8.82l-32.62-44.38l14.67-10.78l30.77,41.86c9.26,12.59,9.75,22.27-4.25,32.57
			C330.45,375.87,321.43,372.45,312.17,359.86z"/>
		<path class="st2" d="M346.41,275.11l20.38-8.72c13.78-5.9,24.92-6.76,31.25,8.03c3.65,8.54,4.57,14.65-0.84,21.17l23.34,28.82
			l-17.5,7.49l-20.06-27.23l-3.47,1.48l12.95,30.27l-16.74,7.16L346.41,275.11z M379.96,295.07c5.83-2.5,5.61-7,3.36-12.24
			c-2.24-5.24-5.37-8.1-10.27-6.01l-5.16,2.21l7.67,17.92L379.96,295.07z"/>
		<path class="st2" d="M428.72,297.03l-4.03-24.68c-2.52-15.43,1.47-26.42,18.62-29.21c16.97-2.77,23.65,5.65,25.65,17.9l0.86,5.26
			l-17.7,2.89l-1.14-6.99c-0.53-3.27-1.29-7.33-5.46-6.65c-4.17,0.68-3.86,4.91-3.34,8.09l5.88,36.03c0.53,3.27,2.12,7.29,6.3,6.61
			c4.08-0.67,4.58-5.03,4.05-8.3l-1.57-9.62l-5.9,0.96l-1.67-10.25l22.05-3.6l6.3,38.66l-11.98,1.95l-1.78-5.21
			c-1.3,4.03-4.2,7.39-10.46,8.41C437.79,321.82,431.16,312,428.72,297.03z"/>
		<path class="st2" d="M497.25,239.58l34.81,1.75l-0.61,12.21l-16.62-0.83l-0.83,16.62l12.4,0.62l-0.64,12.67l-12.4-0.62
			l-1.04,20.76l16.71,0.84l-0.61,12.12l-34.9-1.75L497.25,239.58z"/>
		<path class="st2" d="M560.32,245.52l12.45,3.26l5.08,34.32l8.09-30.87l14.59,3.82l-18.88,72.05l-12.1-3.17l-4.11-37.29
			l-8.88,33.89l-15.12-3.96L560.32,245.52z"/>
		<path class="st2" d="M628.93,267.46l16.49,7.71l-31.56,67.46l-16.49-7.71L628.93,267.46z"/>
		<path class="st2" d="M641.96,331.64l30.37-42.16l14.7,10.59l-32.19,44.69c-1.88,2.61-4.24,6.35-0.81,8.83
			c3.43,2.47,6.24-0.95,8.12-3.56l32.2-44.69l14.77,10.64l-30.37,42.16c-9.14,12.68-18.2,16.13-32.3,5.97
			C632.34,353.96,632.82,344.33,641.96,331.64z"/>
		<path class="st2" d="M693.41,371.17l11.74,10.24c-7.52,6.76-7.72,10.01-5.78,12.21c1.89,2.14,4.08,0.45,5.32-0.64
			c4.55-4.02,5.3-8.72,5.14-15.58l-0.14-6.13c-0.17-7.7,0.96-15.31,8.06-21.58c9.79-8.64,20.69-6.98,29.58,3.08
			c11.32,12.82,1.48,23.22-4.04,28.22l-11.64-10.82c4.83-4.26,7.52-6.76,5.39-9.17c-1.64-1.86-4.8-0.3-6.11,0.86
			c-4.34,3.83-4.43,8.32-4.42,14.45l0.03,5.73c0.11,8.74-1.38,16.92-9.31,23.91c-7.79,6.88-19.32,6.87-27.47-2.37
			C680.2,392.75,680.47,383.19,693.41,371.17z"/>
	</g>
	<g>
		<path class="st2" d="M332.77,799.65l-9.01-6.05l7.54-11.22l33.12,22.26l-7.54,11.22l-8.93-6l-34,50.6l-15.19-10.21L332.77,799.65z
			"/>
		<path class="st2" d="M354.39,857.21l10.48-25.42c5.96-14.45,14.66-20.61,30.64-14.02c15.98,6.59,17.9,17.13,11.95,31.58
			l-10.48,25.42c-5.92,14.37-14.75,20.58-30.73,13.99C350.27,882.16,348.47,871.58,354.39,857.21z M377.97,871.9l14.02-34.01
			c1.23-2.97,2.55-6.91-1.28-8.48c-3.66-1.51-5.57,2.18-6.8,5.15l-14.02,34c-1.19,2.89-2.72,6.84,1.19,8.45
			C374.92,878.6,376.78,874.79,377.97,871.9z"/>
		<path class="st2" d="M428.39,831.69l15.28,2.29l-2.62,40.52l10.26-39.37l11.82,1.77l-1.28,40.25l9.47-39.03l15.09,2.26
			l-18.93,72.48l-16.19-2.42l1.13-42.32l-10.86,40.87l-16.28-2.44L428.39,831.69z"/>
		<path class="st2" d="M499.99,839.75l12.82-1.17l16.45,30.54l-2.9-31.77l15.02-1.37l6.77,74.17l-12.45,1.14l-16.55-33.67
			l3.19,34.89l-15.57,1.42L499.99,839.75z"/>
		<path class="st2" d="M588.33,823.02l30.47-13.16l4.85,11.23l-13.76,5.94l6.74,15.62l12.41-5.36l5.03,11.65l-12.41,5.36
			l12.91,29.88l-16.71,7.22L588.33,823.02z"/>
		<path class="st2" d="M659.82,845.3l-15.39-22.11c-8.88-12.75-9.56-23.71,4.63-33.58c14.19-9.88,23.46-5.24,30.55,4.95l3.78,5.43
			l-14.72,10.24l-4.62-6.64c-1.84-2.64-4.33-6.06-7.8-3.64c-3.47,2.42-1.28,6.05,0.56,8.69l20.91,30.04
			c1.89,2.72,4.56,5.9,7.95,3.54c3.47-2.42,1.13-5.94-0.71-8.58l-4.83-6.94l14.72-10.24l3.78,5.43c7.09,10.19,8.48,20.87-5.71,30.75
			C678.74,862.5,668.65,857.98,659.82,845.3z"/>
	</g>
	<circle class="st2" cx="497.37" cy="572.47" r="230"/>
	<circle class="st4" cx="497.79" cy="572.71" r="222.5"/>
	<g>
		<path class="st2" d="M176.09,555.06h7.56l2.56,14.6l2.87-14.6h7.25l0.49,28.35h-4.83l-0.56-18.38l-2.87,18.38h-4.45l-3.12-18.55
			l-0.46,18.55h-4.9L176.09,555.06z"/>
		<path class="st2" d="M204.68,555.06h7.56l2.56,14.6l2.87-14.6h7.25l0.49,28.35h-4.83l-0.56-18.38l-2.87,18.38h-4.45l-3.12-18.55
			l-0.46,18.55h-4.9L204.68,555.06z"/>
	</g>
	<g>
		<path class="st2" d="M771.88,567.71l-5.11-12.95h6.58l2.77,7l2.1-7h5.67l-4.66,14.98l5.29,13.37H778l-3.12-7.84l-2.77,7.84h-5.64
			L771.88,567.71z"/>
		<path class="st2" d="M790.22,554.76h6.93v28.35h-6.93V554.76z"/>
		<path class="st2" d="M808.28,567.71l-5.11-12.95h6.58l2.77,7l2.1-7h5.67l-4.66,14.98l5.29,13.37h-6.51l-3.12-7.84l-2.77,7.84
			h-5.64L808.28,567.71z"/>
	</g>
</g>
<g id="Layer_5">
	<g>
		<path class="st5" d="M497.87,277.76c-108.28,0-207.41,58.98-259.21,154.06h518.5c-13.39-24.55-30.37-47.33-50.69-67.66
			C650.74,308.45,576.66,277.76,497.87,277.76z"/>
		<path class="st5" d="M202.87,572.76c0,14.93,1.11,29.69,3.27,44.19h583.46c2.16-14.5,3.27-29.26,3.27-44.19
			c0-17.88-1.6-35.52-4.69-52.75H207.63C204.48,537.37,202.87,555.03,202.87,572.76z"/>
		<path class="st5" d="M289.27,781.36c55.72,55.72,129.8,86.4,208.6,86.4c78.8,0,152.88-30.69,208.6-86.4
			c6.15-6.15,11.98-12.54,17.51-19.12H271.76C277.29,768.82,283.12,775.21,289.27,781.36z"/>
		<path class="st2" d="M757.15,431.82c14.98,27.48,25.45,57.18,31.02,88.19h10.17c-5.36-30.92-15.44-60.59-29.85-88.19H757.15z"/>
		<path class="st2" d="M237.7,433.58c0.32-0.59,0.64-1.17,0.96-1.76h-11.34c-14.41,27.61-24.47,57.44-29.85,88.19h10.16
			C213.1,489.82,223.23,460.56,237.7,433.58z"/>
		<path class="st2" d="M723.97,762.24h12.92c33.59-42.21,55.12-92.06,62.8-145.29h-10.1C781.6,670.52,759.07,720.51,723.97,762.24z"
			/>
		<path class="st2" d="M206.14,616.95h-10.1c7.68,53.23,29.21,103.08,62.8,145.29h12.92C236.66,720.51,214.14,670.52,206.14,616.95z
			"/>
	</g>
</g>
<g id="Layer_3">
	<g>
		<path class="st6" d="M652.4,553.21c0,0,91.16,80.97-20.91,104.83l-8.4-4.02c0,0-17.33,42.9-79,21.45c0,0-45.41,55.94-122.18-0.18
			c0,0-82.43,26.27-104.8-26.19c0,0-41.95-100.71,57.93-95.89c0,0-71.18-45.04,36.07-69.17c0,0,13.55-66.03,97.94-25.78
			c0,0,76.87-42.86,106.37,30.07C615.4,488.32,674.92,499.58,652.4,553.21z"/>
		<path class="st7" d="M460.97,449.72c0,0,27.98,11.55,29.59,30.39c0,0,6.34-1.97,12.24,0.18l3.35-23.35l-30.3-10.31L460.97,449.72z
			"/>
		<path class="st7" d="M609.32,525.89c0,0-20.2,3.19-25.02,17.66c0,0,11.8,10.2,8.58,16.36c0,0-12.11,19.57-21.45,19.57l18.95,11.92
			c0,0,17.87,51.89,0,54.57c-22.16,8.04-45.92-26.4-58.83-17.9c0,0-18.03,13.07-17.49,29.96c0,0-21.99,32.44-91.16,5.63l-13.94-5.63
			c0,0-4.62,13.1-76.58,9.64c0,0,26.24,27.95,88.94,6.61c0,0,68.63,54.21,124.92-0.99c0,0,51.81,35.96,76.84-24.1
			c0,0-7.38-50.23-25.23-64.53C597.86,584.67,628.98,543.08,609.32,525.89z"/>
		<path class="st7" d="M640.07,559.92c0,0,27.35,60.93,12.33,68.67c0,0-18.42,6.67-29.32,4.52v24.93l16.98-1.35
			c0,0,96.52-23.58,12.33-103.48L640.07,559.92z"/>
		<path class="st8" d="M383.75,555.62c0,0-60.06-10.46-14.48-59.25c0,0,18.77-18.23,41.83-12.33c0,0,9.12-68.64,100.27-24.67
			c0,0,66.49-45.58,104.03,28.96c0,0,57.38,3.75,37,64.88c0,0,58.45,37,21.45,84.72c0,0-18.23,27.35-51.48,16.09
			c0,0-15.55,49.33-78.29,18.23c0,0-11.8,38.61-74,23.06c0,0-45.58-2.14-50.94-26.81c0,0-13.41,27.88-71.85,7.51
			C288.84,655.63,289.38,530.69,383.75,555.62z"/>
		<path class="st8" d="M419.14,668.5c0,0-35.39-92.77,52.55-78.29c0,0,42.9,0,24.67,56.84"/>
		<path class="st8" d="M540.33,643.83c0,0-2.68,19.84,3.75,28.42"/>
		<path class="st8" d="M348.9,620.77c0,0,21.77-66.65,79.52-25.82"/>
		<path class="st8" d="M470.62,489.4c0,0-53.2,15.26-34.65,102.01"/>
		<path class="st8" d="M412.11,511.38c0,0,20.25-0.4,28.12,6.5"/>
		<path class="st8" d="M541.93,497.98c0,0-8.03-20.91-45.57-18.77c0,0,7.51-20.38,15.01-19.84"/>
		<path class="st8" d="M486.17,548.38c0,0,18.61-11.26,33.97,9.65c0,0,57.72,37.18,75.42,23.68c0,0,38.07-35.42,4.83-67.09"/>
		<path class="st8" d="M584.3,543.55c0,0-21.45-8.04-25.74-18.23"/>
		<path class="st8" d="M595.56,581.72c0,0,32.71,39.59,26.81,72.3"/>
		<path class="st8" d="M627.74,567.15c0,0,11.26-17.7,24.67-13.94"/>
	</g>
</g>
<g id="Layer_6">
	<polygon class="st9" points="566.79,90.59 521.64,84.03 502.12,44.48 502.12,42.32 501.59,43.4 501.45,43.12 501.45,43.68 
		481.93,83.23 436.79,89.79 469.46,121.63 461.74,166.6 501.45,145.72 501.45,146.17 541.83,167.4 534.12,122.43 	"/>
</g>
</svg>
