<?xml version="1.0" encoding="utf-8"?>
<!-- Generator: Adobe Illustrator 27.7.0, SVG Export Plug-In . SVG Version: 6.00 Build 0)  -->
<svg version="1.1" xmlns="http://www.w3.org/2000/svg" xmlns:xlink="http://www.w3.org/1999/xlink" x="0px" y="0px"
	 viewBox="0 0 1000 1000" style="enable-background:new 0 0 1000 1000;" xml:space="preserve">
<style type="text/css">
	.st0{display:none;}
	.st1{display:inline;}
	.st2{fill:#FFC659;}
	.st3{fill:#FFFFFF;}
	.st4{fill:#333333;}
	.st5{fill:#444444;}
	.st6{fill:#D3D2D2;}
	.st7{opacity:5.000000e-02;enable-background:new    ;}
	.st8{fill:#EEEEEE;}
	.st9{fill:#D6D8D8;}
	.st10{fill:none;stroke:#444444;stroke-width:5;stroke-miterlimit:10;}
	.st11{opacity:0.1;}
</style>
<g id="Layer_1">
	<g id="Layer_1_00000069366634773838148800000009364021165265913480_">
		<g id="Layer_4" class="st0">
			<rect class="st1" width="1000" height="1000"/>
		</g>
		<g id="Layer_6">
			<polygon class="st2" points="560.8,90.6 515.6,84 495.5,43.4 475.9,83.2 430.8,89.8 463.5,121.6 455.7,166.6 495.5,145.7 
				535.8,167.4 528.1,122.4 			"/>
		</g>
	</g>
	<g id="Layer_2_00000012451395278324108790000009408377324126658734_">
		<g>
			<g>
				<g>
					<path class="st3" d="M495.4,190.4c-212.8,0-386,173.2-386,386s173.2,386,386,386s386-173.2,386-386
						C881.2,363.7,708.2,190.4,495.4,190.4"/>
					<path class="st4" d="M841,576.4c0-190.9-154.7-345.7-345.9-345.7c-190.9,0-345.9,154.7-345.9,345.7s154.9,345.9,345.9,345.9
						C686.2,922,841,767.3,841,576.4"/>
					<path class="st5" d="M715.4,576.4c0-121.6-98.6-220.2-220.2-220.2S275,454.8,275,576.4s98.6,220.2,220.2,220.2
						S715.4,697.9,715.4,576.4"/>
					<path class="st3" d="M495.3,813.8c-131,0-237.5-106.7-237.5-237.7s106.5-237.5,237.5-237.5S733,445.2,733,576.2
						C732.8,707.4,626.3,813.8,495.3,813.8L495.3,813.8z M495.3,352.1C371.6,352.1,271,452.7,271,576.4s100.7,224.3,224.3,224.3
						S719.6,700,719.6,576.4S618.9,352.1,495.3,352.1L495.3,352.1z"/>
					<path class="st4" d="M495.3,946.5c-204.1,0-370.2-166.1-370.2-370.2s166.1-370.2,370.2-370.2s370.2,166.1,370.2,370.2
						C865.3,780.5,699.4,946.5,495.3,946.5 M495.3,214.1c-199.8,0-362.1,162.5-362.1,362.3c0,199.6,162.5,362.1,362.1,362.1
						S857.4,776,857.4,576.4C857.4,376.6,694.9,214.1,495.3,214.1"/>
					<path class="st4" d="M495.3,800.7C371.6,800.7,271,700,271,576.4s100.7-224.3,224.3-224.3s224.3,100.7,224.3,224.3
						S618.9,800.7,495.3,800.7 M495.3,360.4c-119.1,0-216,96.9-216,216s96.9,216,216,216s216-96.9,216-216S614.4,360.4,495.3,360.4"
						/>
					<g>
						<polygon class="st3" points="200.1,452.7 206.7,440.1 236.5,438 221.4,412.2 228,399.7 281,427.6 275,439.1 240.3,421 
							255.2,447.8 255,448 224.8,451 259.1,469.1 253.1,480.6 						"/>
						<g>
							<path class="st3" d="M313.9,369.1c1.5,3.2,2.2,6.4,2.2,9.6s-0.8,6.3-2.3,9.4s-3.7,6-6.5,8.8c-5.6,5.6-11.6,8.5-18,8.6
								s-12.6-2.9-18.8-9.1l-24-24l9.2-9.2l23.8,23.8c3.4,3.4,6.8,5.2,10.2,5.4c3.3,0.1,6.4-1.2,9.3-4.1c2.8-2.8,4.2-5.9,4.1-9.2
								c-0.1-3.3-1.8-6.6-5.2-10l-24-24.1l9.2-9.2l23.7,23.7C310,362.7,312.4,365.9,313.9,369.1z"/>
						</g>
						<polygon class="st3" points="308.1,314.9 318.5,308.7 361.7,325.7 342.6,294.2 353.7,287.4 384.7,338.5 375,344.3 
							330.6,326.8 350.4,359.4 339.2,366.2 						"/>
						<path class="st3" d="M388.6,304.6L388.6,304.6c-4.7-16.6,3.6-33.6,21.3-38.6c10.7-3.2,18.5-1.3,25.3,2.3l-5.5,11.7
							c-5.7-2.8-10.7-4-16.6-2.3c-9.6,2.8-14.3,12.8-11.5,22.8v0.2c2.8,9.8,12.1,16,21.9,13.2c6.6-1.9,9.8-5.7,13.2-11.1l10.4,5.8
							c-4.1,8.1-9.6,13.9-20.5,17.2C409.7,330.6,393.3,321.1,388.6,304.6z"/>
						<polygon class="st3" points="460.4,256.5 473.4,256.1 474.2,279.9 498.3,279.3 497.7,255.6 510.9,255.2 512.4,315.1 
							499.3,315.5 498.7,291.4 474.4,292.1 475.1,316.1 461.9,316.4 						"/>
						<path class="st3" d="M588.4,323.2l10.9-5.3c3,6.2,7,11.3,13.2,14.1c4.9,2.3,8.7,1.7,10.2-1.5v-0.2c1.5-3,0.2-5.5-7.7-11.9
							c-9.6-7.9-15.3-14.1-10.4-24.9v-0.2c4.5-9.8,15.5-12.6,26.6-7.5c7.9,3.6,13.6,9.2,17,16.2l-10.4,6.2
							c-3.2-5.7-7.2-9.8-11.7-11.9s-7.9-1.1-9.2,1.5v0.2c-1.7,3.6,0.2,5.8,8.5,12.6c9.6,7.9,14.1,14.9,9.6,24.3v0.2
							c-4.9,10.7-16,13-27.7,7.7C599.3,338.9,592.4,332.1,588.4,323.2z"/>
						<polygon class="st3" points="675.9,326.8 661.4,315.7 668.7,306.1 708.1,336 700.7,345.8 686.2,334.7 657.4,372.6 
							646.8,364.7 						"/>
						<path class="st3" d="M770.5,411.8l12.3,24.5c3.4,6.8,4.1,13,2.5,18.3c-1.5,4.5-4.9,8.1-10,10.7H775
							c-8.7,4.3-16.4,2.5-22.4-3.2L740,484.7l-7-13.8l11.3-20.2l-4.7-9.2l-17.2,8.7l-5.8-11.7L770.5,411.8z M756.3,448.6
							c2.8,5.7,7.5,7.5,12.1,5.3h0.2c5.1-2.5,5.8-7.4,3-13l-5.8-11.7l-15.3,7.7L756.3,448.6z"/>
						<polygon class="st3" points="548.4,296.6 570.5,301.4 576.7,290.8 551.1,285.1 553.5,273.3 584.8,280.1 587.5,268.7 
							543.2,259.1 530.5,317.6 575.2,327.4 577.7,315.9 545.8,308.9 						"/>
						<polygon class="st3" points="726.2,353.9 680.2,392.4 709.6,427.3 718.5,419.7 697.7,394.8 707.3,386.7 722,404.3 
							733.9,400.3 716.4,379.2 725.6,371.5 746.2,396 755.2,388.4 						"/>
						<g>
							<path class="st3" d="M393.7,864.4L393.7,864.4c0-17.5,13-31.7,31.9-31.7c11.5,0,18.3,3.8,24.1,9.4l-8.5,9.8
								c-4.7-4.3-9.4-6.8-15.6-6.8c-10.4,0-17.7,8.5-17.7,19v0.2c0,10.4,7.2,19.2,17.7,19.2c7,0,11.3-2.8,16-7.2l8.5,8.7
								c-6.2,6.8-13.2,10.9-25.1,10.9C407.1,895.7,393.7,881.7,393.7,864.4z"/>
							<path class="st3" d="M463.1,833.6h13.4v60.9h-13.4V833.6z"/>
							<path class="st3" d="M507.5,846.1H489v-12.4h50.5v12.4H521v48.6h-13.4v-48.6H507.5z"/>
							<path class="st3" d="M568.6,870.6l-23.4-36.9h15.6l14.5,24.5l14.7-24.5h15.3L582,870.2v24.3h-13.4V870.6L568.6,870.6z"/>
						</g>
					</g>
					<g>
						<path class="st2" d="M181.8,568.6c-1.1,0.8-2.3,2-3.6,3.6l-5.5-4.5c0.9-1.2,1.8-2.3,2.7-3.2s1.9-1.7,2.9-2.3s2.2-1.1,3.5-1.4
							c1.3-0.3,2.7-0.5,4.3-0.5c1.9,0,3.6,0.3,5.2,0.8c1.5,0.5,2.8,1.3,3.9,2.3c1.1,1,1.9,2.1,2.5,3.5s0.8,2.9,0.8,4.6
							c0,1.5-0.2,2.8-0.6,4c-0.4,1.2-1,2.3-1.7,3.4c-0.8,1.1-1.8,2.1-2.9,3.2c-1.2,1-2.6,2.2-4.2,3.4l-5.8,4.5h15.6v6.8h-26.6v-6.2
							l11.9-9.8c1.1-0.9,2.1-1.7,2.9-2.5c0.8-0.7,1.4-1.4,1.9-2.1c0.5-0.7,0.9-1.3,1.1-1.9c0.2-0.6,0.3-1.3,0.3-2.1
							c0-1.5-0.4-2.7-1.3-3.5c-0.9-0.8-2.1-1.2-3.5-1.2C184.2,567.4,182.9,567.8,181.8,568.6z"/>
						<path class="st2" d="M235.2,586.1c-0.8,2.3-1.9,4.2-3.3,5.9c-1.4,1.7-3.1,3-5,3.9c-2,1-4.1,1.4-6.5,1.4s-4.6-0.5-6.5-1.4
							c-2-0.9-3.6-2.2-5-3.9s-2.5-3.6-3.2-5.9c-0.8-2.2-1.1-4.7-1.1-7.3s0.4-5,1.2-7.3s1.9-4.2,3.3-5.9c1.4-1.7,3.1-3,5-3.9
							c2-1,4.1-1.4,6.5-1.4s4.6,0.5,6.5,1.4c2,0.9,3.6,2.2,5,3.9s2.5,3.6,3.2,5.9c0.8,2.3,1.1,4.7,1.1,7.3
							C236.3,581.4,235.9,583.8,235.2,586.1z M227.7,574.3c-0.4-1.4-0.9-2.6-1.6-3.6c-0.7-1-1.5-1.8-2.5-2.4c-1-0.6-2.1-0.9-3.3-0.9
							s-2.3,0.3-3.2,0.8c-1,0.6-1.8,1.4-2.5,2.4s-1.2,2.2-1.6,3.6c-0.4,1.4-0.5,2.9-0.5,4.6c0,1.6,0.2,3.2,0.6,4.6
							c0.4,1.4,0.9,2.6,1.6,3.6c0.7,1,1.5,1.8,2.5,2.4c1,0.6,2.1,0.9,3.3,0.9s2.3-0.3,3.2-0.8c1-0.6,1.8-1.4,2.5-2.4
							s1.2-2.2,1.6-3.6c0.4-1.4,0.5-2.9,0.5-4.5S228,575.7,227.7,574.3z"/>
					</g>
					<g>
						<path class="st2" d="M770.9,559.8h5.4V596h-7.8v-28.1l-6.3,1.5l-1.6-6.5L770.9,559.8z"/>
						<path class="st2" d="M811.2,585c-0.7,2.4-1.7,4.5-3,6.2s-2.9,3-4.9,4s-4.2,1.4-6.8,1.4s-4.9-0.4-6.7-1.2s-3.5-1.8-5.1-3.1
							l4.2-6c1.3,1.1,2.5,1.8,3.7,2.3s2.6,0.7,4.1,0.7c2.2,0,3.9-0.8,5.1-2.3c1.2-1.5,1.9-3.5,2.2-5.9c-0.9,0.8-1.9,1.4-3.1,1.8
							c-1.2,0.4-2.6,0.7-4.2,0.7c-1.9,0-3.7-0.3-5.3-0.8s-2.9-1.3-4-2.3s-2-2.2-2.6-3.6c-0.6-1.4-0.9-3.1-0.9-4.9c0-1.8,0.3-3.5,1-5
							s1.6-2.9,2.8-4s2.6-2,4.3-2.6s3.5-0.9,5.6-0.9c1.2,0,2.3,0.1,3.3,0.2c1,0.2,1.9,0.4,2.7,0.7s1.6,0.7,2.3,1.2s1.4,1.1,2.1,1.8
							c0.6,0.6,1.2,1.4,1.7,2.2s1,1.8,1.3,2.9c0.4,1.1,0.7,2.3,0.9,3.7s0.3,3,0.3,4.8C812.2,579.9,811.9,582.6,811.2,585z
							 M802.5,567.8c-1.1-1-2.7-1.5-4.7-1.5s-3.5,0.5-4.5,1.5c-1.1,1-1.6,2.3-1.6,4c0,1.6,0.6,3,1.7,3.9c1.1,1,2.7,1.5,4.6,1.5
							c2,0,3.5-0.5,4.6-1.5s1.6-2.3,1.6-3.9C804.2,570.1,803.6,568.8,802.5,567.8z"/>
					</g>
					<path class="st6" d="M495.3,190.3"/>
					<path class="st7" d="M494,190.4"/>
					<path class="st2" d="M491.2,397c-103.6,0-163.5,13.6-163.5,13.6s-23.8,90.9-10.2,207.3c5.7,48.9,45.4,154,177.1,190l0,0
						c131.7-35.8,171.4-141.1,177.1-190c13.6-116.5-10.2-207.3-10.2-207.3s-60-13.6-163.6-13.6L491.2,397L491.2,397z"/>
				</g>
			</g>
		</g>
	</g>
	<path class="st4" d="M490.7,382.3c-111,0-175.1,14.6-175.1,14.6s-25.5,97.4-11,222c6.1,52.4,48.6,164.9,189.6,203.4l0,0
		c141-38.4,183.6-151.1,189.6-203.4c14.6-124.8-11-222-11-222s-64.1-14.6-175.1-14.6H490.7z"/>
	<path class="st5" d="M664.4,589.9c-1.3,37.8-7.2,150.9-170.4,213.1c-161.8-60.5-170.4-177.5-170.4-213.1L664.4,589.9L664.4,589.9z"
		/>
	<path class="st4" d="M659.5,583.6c4.3-93.8-11.5-169.8-11.5-169.8s-60.9-11.7-153.7-11.7c-93,0-154.8,12.9-154.8,12.9
		s-16.8,76.4-12.3,168.5h332.4V583.6z"/>
	<g>
		<path class="st4" d="M499.2,799.5L326.9,591.4C320.7,634.3,355.5,760.8,499.2,799.5z"/>
		<path class="st4" d="M378.3,590.1l159.4,192.3c16.1-7.8,28-15.3,39.3-24.4L437.9,590.1H378.3z"/>
		<path class="st4" d="M489,590.2l117.8,142c11.5-13,21.4-25,28.4-37.4l-86.6-104.6H489z"/>
		<path class="st4" d="M661.6,590.2l-58.8-0.2l49.3,59.6C660.6,631.3,661.6,600.5,661.6,590.2z"/>
	</g>
	<path class="st2" d="M654.2,409.5c0,0-63.9-13.6-160.1-13.6v0c-96.2,0-160.3,13.6-160.3,13.6s-28,98.7-13.2,216.3
		c6.2,49,46.7,140.7,173.2,183.2l0.4-0.5v0.5c126.5-42.5,167.1-134,173.2-183.2C682.2,508.2,654.2,409.5,654.2,409.5z M654,626.9
		c-6.1,46.1-40.8,126.7-160,166.6v0.5l-0.4-0.5c-119.1-39.9-153.9-120.6-160-166.6c-1.3-10.2-2.3-20.4-3-30.3h163.4v0h163
		C656.3,606.7,655.3,616.7,654,626.9z M658,582.7h-51.9H579h-13.2c0.2,0.1,0.4,0.1,0.6,0.2h-72v0h-83.9h-60.4v-0.2h-20
		c-4.3-90.4,13-164.3,13-164.3s60.3-12.9,151.1-12.9v0c90.8,0,150.9,12.9,150.9,12.9S662.5,492.3,658,582.7z"/>
</g>
<g id="Layer_2">
	<path class="st8" d="M494.3,636.6c-27.4,0-49.6,22.2-49.6,49.6s22.2,49.6,49.6,49.6c19.2,0,35.8-10.9,44-26.8
		c3.5-6.8,5.5-14.6,5.5-22.8C543.9,658.8,521.7,636.6,494.3,636.6z"/>
	<path class="st9" d="M495.1,636.6c0,0,25.3,21.1,25.3,48.5s-25.3,50.7-25.3,50.7c19.2,0,35.8-10.9,44-26.8
		c3.5-6.8,5.5-14.6,5.5-22.8C544.7,658.8,522.5,636.6,495.1,636.6z"/>
	<g>
		<path class="st10" d="M497,661.3c23.4-0.9,47.7,24.9,47.7,24.9c0-27.4-22.2-49.6-49.6-49.6C488.4,652.7,497,661.3,497,661.3z"/>
		<path class="st10" d="M516,697.9c-18.2,29.7-49.8,28.6-49.8,28.6S497.8,727.6,516,697.9c0,0-9.8-14.1-20.9-11.7
			c-0.6,14.6-18.6,11.4-18.6,11.4c-13.5,20.4-26.4,9.5-26.4,9.5s12.8,10.8,26.4-9.5c-23.1-29.5,0-57.4,0-57.4s-23.1,28,0,57.4
			c0,0,18,3.1,18.6-11.4c0,0-8.9-21.5,1.9-24.9c0,0-8.5-8.6-1.9-24.6c-27.4,0-49.6,22.2-49.6,49.6s22.2,49.6,49.6,49.6
			c19.2,0,35.8-10.9,44-26.8C539.1,709,526,695.2,516,697.9z"/>
		<path class="st10" d="M497,661.3c-10.8,3.5-1.9,24.9-1.9,24.9c11.1-2.3,20.9,11.7,20.9,11.7c10-2.8,23.1,11.1,23.1,11.1
			c3.5-6.8,5.5-14.6,5.5-22.8C544.7,686.2,520.3,660.4,497,661.3z"/>
	</g>
</g>
<g id="Layer_3">
	<path class="st2" d="M537,582.9c4.9,0,9.7,0,14.5,0c-1.6-0.5-1.7-2.1-2.7-3.4c0.7-0.1,1.3-0.2,1.8-0.2c-0.2-2.8-0.4-5.5-0.6-8.2
		c0-0.5,0-1.1,0-1.6c-0.1-0.7-0.3-1.3-0.4-2c-0.2-0.6-0.4-1.2-0.6-1.8c-0.4-0.5-0.8-1.1-1.1-1.6c0-0.3-0.1-0.6-0.1-0.9
		c-0.3-0.9-0.5-1.8-0.8-2.7c-0.1-0.4-0.2-0.7-0.2-1.1c-0.1-1-0.3-2.1-0.4-3.1c-0.2-1.4-0.5-2.9-0.7-4.3c0-0.2,0-0.4,0-0.6
		c-0.1-0.9-0.2-1.8-0.3-2.7c-0.1-0.2-0.1-0.4-0.2-0.6c-0.1-1.4-0.2-2.7-0.2-4.1c-0.1-0.6-0.1-1.2-0.2-1.8c-0.4-2.2-0.7-4.5-1.1-6.7
		c0,0,0,0,0,0c-0.1-0.3-0.2-0.6-0.2-0.9c-0.8-2.9-1.6-5.7-2.4-8.6c-0.5,0.2-1.1,0.5-1.6,0.7c0.5-0.2,1.1-0.5,1.6-0.7
		c0-0.1-0.1-0.1-0.1-0.2c-0.6-2-1-4.2-2-6c-1.1-2.1-1.6-4.3-2.4-6.4c-0.3-0.8-0.6-1.6-0.4-2.3c0.2-1.1,0-2-0.3-2.9
		c-0.3-0.8-0.5-1.6-0.6-2.4c-0.3-1.3-0.5-2.6-0.7-3.9c0-0.1,0-0.2,0-0.3c0-1.1,0-2.2,0-3.3c-0.1-0.9-0.1-1.7-0.2-2.6
		c-0.1-2.4,0.2-4.8-0.3-7.1c-0.8-4.4-2.4-8.6-4.4-12.6c-0.4-0.8-0.7-1.7-1.2-2.5c-0.3-0.4-0.7-0.9-1.2-1.1c-2.3-0.7-4.6-1.4-6.9-2.1
		c-1.4-0.4-2.8-0.7-4.2-1.1c-1.7-0.5-3.3-1.1-5-1.6c-1.1-0.4-2.1-0.7-3.2-1.1c-0.5-0.2-1.1-0.4-1.6-0.7c-0.9-0.5-1.9-0.9-2.8-1.4
		c-0.1-0.1-0.2-0.2-0.4-0.2c-1.1,0.1-1.3-0.5-1.2-1.4c0.1-1,0-2.1,0-3.1c0.1-1,0.1-1.9,0.2-2.9c0.2-2.2,0.4-4.3,0.5-6.3
		c0.5-0.2,0.9-0.4,1.3-0.6l0,0c0.9-0.6,1.2-1.6,1.4-2.6c0.3-1.8,0.4-3.7,0.8-5.5c0.2-1-0.1-1.4-1-1.5c-0.5,0-1-0.1-1.6-0.1
		c0.1-0.7,0.2-1.3,0.2-1.9c-0.2-3.2-0.3-6.5-0.7-9.7c-0.1-1-0.6-2.1-1.3-2.9c-1.1-1.4-2.7-2.4-3.8-3.8c-0.9-1.1-2-1.6-3.2-1.9
		c-0.8-0.2-1.7-0.2-2.7-0.2c-1.9,0.1-3.9,0.2-5.8-0.1c-1.9-0.3-3.4-0.1-4.7,1.5c-1.1,1.2-2.7,2.1-4,3.1c-0.5,0-0.9,0.1-1.4,0.1
		c-0.2,0-0.4,0-0.5,0.1c-1.5,1.5-3.5,1.9-5.5,2.3c-2.5,0.4-4.9,1.6-7.6,1.5c-0.9,0-1.9,0.1-2.8,0.4c-1.9,0.7-3.6,1.6-5.5,2.4
		c-1.8,0.8-3.6,1.7-5.4,2.2c-1.8,0.4-3,1.2-3.8,2.8c-0.1,0.1-0.2,0.1-0.2,0.2c-2.4,1.7-4.8,3.5-7.3,5.1c-2.7,1.7-5.7,3.2-8.3,5
		c-4.1,2.8-8,6-12.1,8.9c-2.9,2.1-5,5-7.4,7.7c0,0,0,0,0,0c-0.2,0.2-0.3,0.4-0.5,0.6c-0.2,0.8-0.4,1.7-0.6,2.5
		c0.7,2.4,2.1,4.4,4.2,5.8c0,0,0,0,0,0c0.1,0.1,0.2,0.1,0.2,0.2c0.5,0.4,1,0.8,1.5,1.1c5.8,3.5,11.5,7,17.9,9.2
		c2.2,0.8,4.5,1.2,6.8,1.7c0.3,0.1,0.7,0.2,1,0.3c0.9,0.2,1.9,0.5,2.8,0.7c0.2,0.2,0.5,0.5,0.8,0.7c1.5,0.5,3,0.9,4.5,1.6
		c1.3,0.5,2.5,1.2,3.6,2.1c1,0.8,1.6,2,2.4,3.1c0.4,0.5,1,0.9,1.2,1.4c1,2.5,2.1,4.9,2.8,7.5c1,3.5,1.7,7.1,2.5,10.6
		c0.5,2.3,1.7,4.4,1.7,6.9c0,1.6,0.2,3.1,1,4.6c0.3,0.6,0.5,1.4,0.7,2.1c0.8,1.7,0.8,3.4,0.8,5.2c0,2.4-0.2,4.8,0.1,7.2
		c0.2,2,0.8,4,0.4,6c-0.1,1.3-0.2,2.7-0.2,4c0,0.4-0.1,0.8-0.1,1.2c-0.4,1-0.8,1.9-1.1,2.9c0.1,0.5,0.1,1,0.2,1.6c0,0.7,0,1.5,0,2.2
		c0.1,1,0.2,1.9,0.2,2.9c0.2,0.9,0.3,1.8,0.5,2.7c0,0.7,0.1,1.4,0,2.1c-0.2,1.9-0.5,3.8-0.7,5.7c0.1,0,0.1,0,0.2,0
		c-0.1,0-0.1,0-0.2,0c-0.4,0.7-1.2,1.4-1.3,2.2c-0.3,3.7-0.3,7.4-0.5,11.1c0.3,0.1,0.6,0.2,1,0.2c10.4,0,20.8,0,31.3,0
		c11.4,0,22.8,0,34.2,0c0.4,0,0.8,0,1.1,0c-0.6-4.8-1.2-9.6-1.8-14.3c-1.1,0-2.1,0-3.2,0c1.1,0,2.1,0,3.2,0
		c-0.1-0.3-0.1-0.6-0.2-0.9c-0.2-1.5-0.3-3-0.5-4.5c-0.1-1.5-0.1-3-0.2-4.5c0-0.3-0.3-0.6-0.4-0.9c0-0.2-0.1-0.4-0.1-0.6
		c-0.4-0.4-0.8-0.7-1.2-1.1c-0.2-0.3-0.4-0.6-0.4-1c-0.1-0.6,0-1.2,0-1.8c0.1-0.8,0.1-1.6,0.2-2.5c-0.2-1.1,0.3-2,0.9-2.9
		c0.1-0.4,0.2-0.9,0.2-1.3c0.1-1.2-0.3-2.2-1.3-2.9c0.3-1.1,0.6-2.2,0.8-3.4c-0.1-0.4-0.1-0.8-0.2-1.1c-0.3-2.7-1.4-5.1-2.9-7.4
		c-0.2-0.6-0.5-1.2-0.6-1.8c-0.1-0.5,0-1.1,0.1-1.6c0.1-0.1,0.1-0.3,0.2-0.4c0-2.2,0.6-4.5-0.2-6.7c0-0.2,0-0.5,0-0.7
		c0-0.8,0-1.7,0.1-2.5c0-0.2,0.3-0.4,0.4-0.6c0.1,0.5,0.2,1,0.3,1.6c0.1,0.1,0.1,0.2,0.2,0.2c0,0,0,0,0,0c0.5,2.4,1.1,4.8,1.6,7.2
		c0.1,0.4,0.2,0.9,0.2,1.3c0.1,0.4,0.1,0.8,0.2,1.1c0.1,0.4,0.2,0.9,0.2,1.3c0.5,1.7,1,3.3,1.4,5c0.3,1.2,0.9,2.3,0.9,3.5
		c0.2,3.6,1.4,6.9,2.8,10.1c0.5,1.3,1,2.6,1.6,3.9c0.9,1.8,1.9,3.6,2.8,5.4c0.2,0.6,0.5,1.2,0.7,1.8c0.1,0.3,0.4,0.6,0.6,0.9
		c0.1,0.3,0.1,0.7,0.2,1c0.2,0.6,0.4,1.2,0.6,1.8c0.2,0.5,0.3,0.9,0.5,1.4c0,0.3-0.1,0.8,0,1c1.4,1.7,1.4,3.9,1.8,5.6
		c-0.5,0.7-1,1.1-1.2,1.6C537,576.4,537.2,579.7,537,582.9z M461.2,462.6L461.2,462.6c-1.5,0.4-2.3,1.1-2.4,2.4
		c-0.5,0.1-1.1,0.2-1.6,0.3c-0.6,0-1.3-0.1-1.9,0c-1.6,0.1-3.2,0-4.7-0.6c-0.3-0.1-0.7,0-1,0c-1.1,0.1-2.2,0.3-3.4,0.4
		c-0.7-0.1-1.3-0.1-2-0.2c0.1,0.4,0.2,0.9,0.2,1.3c-0.1-0.4-0.2-0.9-0.2-1.3c-0.8,0.2-1.7,0.3-2.5,0.5c-0.9,0.5-1.8,0.4-2.6-0.3
		c-0.4-0.3-0.9-0.3-1.4-0.4c-1.8-0.6-3.6-1.2-5.3-1.8c0.4-0.6,0.9-1.2,1.3-1.8c-0.3,0.1-0.7,0.1-1,0.2c0.3-0.1,0.7-0.2,1-0.2
		c0.8-0.9,1.6-1.9,2.3-2.8c0.3-0.4,0.4-0.8,0.6-1.2c0-0.1,0-0.3,0.1-0.4c0-0.2,0-0.4,0-0.5c-0.1,0.1-0.1,0.3,0,0.5
		c0.4-0.3,0.7-0.6,1.1-0.9c0,0,0,0,0,0c0.1-0.1,0.2-0.1,0.3-0.2c1-0.7,2-1.5,3-2.2c0.5-0.4,1.1-0.7,1.4-1.2c0.9-1.5,2.3-2.3,3.8-2.9
		c1.3-0.6,2.5-1.4,3.7-2.1c0,0,0,0,0,0c0.8-1.1,1.8-1.9,3.1-2.3c0.4-0.1,0.8,0,1.2,0.1c1.9,0.1,3.9,0.4,5.8,0.4
		c2.8-0.1,5.7-0.3,7.7-2.7c0.1-0.1,0.2-0.2,0.3-0.3c1.7-1,2.7-2.3,2.1-4.5c1.6-0.7,3.1-1.4,4.7-2.1c0.1,0.7,0.1,1.2,0.2,1.7
		c0.2,0.6,0.4,1.2,0.5,1.9c-0.2-0.6-0.4-1.2-0.5-1.9c0,0.3,0,0.6,0.1,1c0.1,1,0.2,2,0.3,3.1c-0.8,0-1.2,0.5-1.1,1.3
		c0.1,1.2,0.2,2.4,0.2,3.7c-0.1,1.8,0.7,3.3,1.6,4.7c0.5,0.1,1,0.2,1.5,0.3c0.2,1.8,0.2,3.8,1.6,5.3c0,0,0,0,0,0
		c0,0.4,0,0.7,0.1,1.1c0.1,0.6,0.2,1.2,0.1,1.9c-0.1,1.5,0.8,3.2-0.9,4.4c-0.5,0.1-1.1,0.1-1.6,0.2v0c-1.5,0.1-2.9,0.3-4.1,1.4
		c-0.2-0.1-0.4-0.2-0.6-0.2c-0.4-0.1-0.8-0.1-1.1-0.2c0.4,0,0.8,0.1,1.1,0.1c-1.8-1.4-3.6-2.4-5.9-2.5
		C464.6,462.7,462.9,462.7,461.2,462.6z"/>
</g>
<g id="Layer_4_00000150065170028373349650000002245519065660671151_">
	<path class="st11" d="M495.8,206.2"/>
</g>
</svg>
