<?xml version="1.0" encoding="utf-8"?>
<!-- Generator: Adobe Illustrator 25.3.1, SVG Export Plug-In . SVG Version: 6.00 Build 0)  -->
<svg version="1.1" id="Layer_1" xmlns="http://www.w3.org/2000/svg" xmlns:xlink="http://www.w3.org/1999/xlink" x="0px" y="0px"
	 viewBox="0 0 1000 1000" style="enable-background:new 0 0 1000 1000;" xml:space="preserve">
<style type="text/css">
	.st0{display:none;}
	.st1{display:inline;fill:#010202;}
	.st2{fill:#010202;stroke:#FFFFFF;stroke-width:20;stroke-miterlimit:10;}
	.st3{fill:#010202;}
	.st4{fill:#FFFFFF;}
	.st5{fill:#FDFDFD;}
	.st6{fill:#CFCED0;}
	.st7{display:inline;}
</style>
<g id="Layer_4" class="st0">
	<rect class="st1" width="1000" height="1000"/>
</g>
<g id="Layer_5">
	<circle class="st2" cx="500" cy="500" r="265"/>
	<path class="st3" d="M500,824.77c-43.87,0-86.43-8.59-126.51-25.54c-38.7-16.37-73.46-39.8-103.3-69.65
		c-29.84-29.84-53.28-64.6-69.65-103.3C183.59,586.21,175,543.64,175,499.77s8.59-86.43,25.54-126.51
		c16.37-38.7,39.8-73.46,69.65-103.3c29.84-29.84,64.6-53.28,103.3-69.65c40.07-16.95,82.64-25.54,126.51-25.54
		s86.43,8.59,126.51,25.54c38.7,16.37,73.46,39.8,103.3,69.65c29.84,29.84,53.28,64.6,69.65,103.3
		C816.41,413.34,825,455.9,825,499.77s-8.59,86.43-25.54,126.51c-16.37,38.7-39.8,73.46-69.65,103.3s-64.6,53.28-103.3,69.65
		C586.43,816.18,543.87,824.77,500,824.77z M500,191.44c-41.63,0-82.01,8.15-120.01,24.23c-36.72,15.53-69.69,37.76-98.01,66.08
		s-50.55,61.29-66.08,98.01c-16.08,38.01-24.23,78.39-24.23,120.01s8.15,82.01,24.23,120.01c5.77,13.65,12.47,26.77,20.06,39.34
		c12.84,21.24,28.23,40.88,46.02,58.67c28.32,28.32,61.29,50.55,98.01,66.08C418,799.95,458.38,808.1,500,808.1
		s82.01-8.15,120.01-24.23c36.72-15.53,69.69-37.76,98.01-66.08s50.55-61.29,66.08-98.01c16.08-38.01,24.23-78.39,24.23-120.01
		s-8.15-82.01-24.23-120.01c-15.53-36.72-37.76-69.69-66.08-98.01s-61.29-50.55-98.01-66.08C582.01,199.59,541.63,191.44,500,191.44
		z"/>
	<circle class="st3" cx="498.18" cy="499.86" r="252.38"/>
	<circle class="st3" cx="498.18" cy="499.86" r="239.76"/>
</g>
<g id="Layer_7">
</g>
<g id="Layer_6">
	<g>
		<path class="st3" d="M477.18,858.48l-22.33-3.15l-6.59,18.07l17.33,2.44l-2.6,7.2l-17.33-2.44l-9.19,25.26l-19.83-2.8l17.68-48.69
			c1.03-2.73,2.7-4.79,5.01-6.2c2.31-1.4,4.84-1.91,7.6-1.52l32.85,4.63L477.18,858.48z"/>
		<path class="st3" d="M527.97,901.12c-0.6,2.85-1.93,5.15-4,6.89s-4.49,2.63-7.28,2.67l-33.78,0.45c-2.85,0.04-4.96-0.79-6.35-2.48
			s-1.78-3.97-1.18-6.82l8.16-41.39c0.6-2.85,1.93-5.15,4-6.89s4.49-2.63,7.28-2.67l33.78-0.45c2.84-0.04,4.96,0.79,6.35,2.48
			c1.39,1.7,1.78,3.97,1.18,6.82L527.97,901.12z M503.97,858.25l-8.98,45.23l12.54-0.17l8.98-45.23L503.97,858.25z"/>
		<path class="st3" d="M595.19,890.72c-0.11,2.91-1.03,5.4-2.78,7.47c-1.74,2.07-3.98,3.35-6.72,3.86l-33.22,6.17
			c-2.8,0.52-5.02,0.06-6.68-1.37c-1.65-1.43-2.43-3.61-2.32-6.52l1.02-42.17c0.11-2.91,1.03-5.4,2.77-7.47
			c1.74-2.06,3.98-3.35,6.72-3.86l33.22-6.17c2.79-0.52,5.02-0.06,6.67,1.37c1.66,1.44,2.43,3.61,2.32,6.52L595.19,890.72z
			 M564.27,852.54l-1.18,46.1l12.33-2.29l1.18-46.1L564.27,852.54z"/>
		<path class="st3" d="M649.71,826.97l-14.09,5.08l7.36,53.26l-18.84,6.79l-7.36-53.26l-14.09,5.08l-1.07-7.58l47.02-16.96
			L649.71,826.97z"/>
		<path class="st3" d="M706.8,814.52c0.31,1.16,0.3,2.42-0.03,3.8s-0.89,2.55-1.68,3.52c1.07,0.01,2.09,0.33,3.08,0.98
			c0.99,0.65,1.64,1.54,1.95,2.7l4.54,14.61c0.82,2.8,0.74,5.45-0.25,7.96s-2.71,4.45-5.14,5.8l-37.75,20.99l-18.09-58.69
			l37.75-20.99c2.48-1.38,4.74-1.66,6.77-0.82c2.02,0.83,3.45,2.65,4.27,5.44L706.8,814.52z M673.21,813.77l5.64,18.38l10.96-6.09
			l-5.64-18.38L673.21,813.77z M681.12,839.46l5.64,18.38l10.96-6.09l-5.64-18.38L681.12,839.46z"/>
		<path class="st3" d="M773.22,807.83l-15.63,12.53l-8.64-17.18l-9.78,7.84l8.64,17.18l-15.62,12.53l-23.34-46.24
			c-1.28-2.62-1.64-5.25-1.08-7.89s1.92-4.84,4.1-6.58l26.36-21.13c2.22-1.78,4.4-2.43,6.53-1.95s3.84,2.03,5.12,4.65L773.22,807.83
			z M723.61,780.2l12.1,24l9.78-7.84l-12.1-24L723.61,780.2z"/>
		<path class="st3" d="M814.12,765.85l-28.77,31.39l-35.71-49.97l13.53-14.77l31.24,43.75l15.24-16.63L814.12,765.85z"/>
		<path class="st3" d="M847.72,720.23l-24.17,35.06l-42.26-44.57l11.37-16.49l36.98,39.03l12.8-18.57L847.72,720.23z"/>
		<path class="st3" d="M868.89,682.82c-1.15,2.6-2.79,4.18-4.91,4.73s-4.35-0.04-6.69-1.78l-34.2-24.69
			c-2.34-1.74-3.87-3.91-4.59-6.51c-0.72-2.6-0.51-5.18,0.62-7.73l13.45-30.33l6.21,4.47l-9.14,20.62l37.14,27.52l9.35-21.09
			l6.21,4.47L868.89,682.82z"/>
		<path class="st3" d="M899.58,598.8l-11.77,40.92l-54.23-28.83l5.54-19.25l47.46,25.25l6.24-21.67L899.58,598.8z"/>
		<path class="st3" d="M901.56,529.14c2.74,1,4.83,2.64,6.25,4.94c1.43,2.29,1.97,4.82,1.61,7.58l-4.33,33.51
			c-0.37,2.82-1.48,4.8-3.36,5.93c-1.87,1.13-4.18,1.2-6.92,0.2l-48.89-17.12l2.57-19.86l50.73,17.8l1.61-12.44l-50.73-17.8
			l2.57-19.86L901.56,529.14z"/>
		<path class="st3" d="M874.41,456.68c1.17,0.24,2.3,0.82,3.38,1.73s1.88,1.94,2.39,3.08c0.48-0.95,1.24-1.72,2.26-2.32
			c1.02-0.59,2.12-0.77,3.29-0.53l15.09,2.52c2.87,0.52,5.2,1.79,7,3.81s2.75,4.42,2.87,7.2l1.77,43.15l-60.56-10.24l-1.77-43.15
			c-0.12-2.84,0.65-4.98,2.31-6.41s3.92-1.89,6.79-1.37L874.41,456.68z M858.63,486.35l18.96,3.23l-0.51-12.53l-18.96-3.23
			L858.63,486.35z M885.14,490.84l18.96,3.23l-0.51-12.53l-18.96-3.23L885.14,490.84z"/>
	</g>
</g>
<g id="Layer_2_1_">
	<path class="st4" d="M784.23,324.91c-2.7-12.31-10.4-22.05-22.88-28.98c-3.69-2.82-18.54-13.19-36.71-13.19
		c-10.63,0-20.42,3.44-29.07,10.21c-0.98,0.76-23.95,18.71-32.89,38.43c-11.27,18.63-23.81,38.84-30.3,48.66
		c-11.12-4.51-22.83-5.57-31.41-5.57c-1.46,0-2.83,0.03-4.08,0.08c-6.76-14.62-23.76-33.32-56.34-33.32c-6,0-12.39,0.63-19.06,1.88
		c-18.67-37.28-53.74-37.73-55.31-37.73h-0.33l-0.22,0.01c-38.27,2.04-67.56,24-84.69,63.5c-4.67,10.77-7.81,21.42-9.91,30.57
		c-24.08-29.76-54.98-39.86-59.13-41.11c-10.68-3.88-21.19-5.85-31.23-5.85c-36.22,0-54.62,25.08-55.38,26.15l-0.35,0.49l-0.29,0.52
		c-9.75,17.76-12.32,34.41-7.64,49.48c6.54,21.05,25.08,30.59,25.86,30.99l0.65,0.33l0.69,0.23c17.94,5.98,46.92,30.92,56.58,40.02
		l0.77,0.72l0.53,0.32c1.12,1.21,7.17,9.19,19.9,50.45c7.13,23.12,12.77,45.07,12.82,45.29l0.42,1.64l0.93,1.41
		c9.69,14.61,22.05,26.62,36.83,35.77c-0.37,21.02,5.72,38.43,18.15,51.81c22.38,24.09,59.7,29.15,87.07,29.15c0,0,0,0,0.01,0
		c11.86,0,20.47-0.98,22.44-1.23c48.77-2.88,82.52-15.88,100.32-38.63c10.49-13.42,12.66-27,12.83-35.19
		c6.54-3.74,12.79-8.27,18.66-13.54l0.26-0.24c1.31-1.26,32.17-31.55,40.37-90.67l0.02-0.15c1.76-14.23,9.58-54.95,24.46-72.3
		l70.84-85.13l0.14-0.19C769.44,378.83,789.99,351.17,784.23,324.91z"/>
	<g>
		<path class="st5" d="M382.95,438.16l-8.05-6.7c0,0-29.86-67.26-100.46-66.98c0,0-39.63,3.35-44.93,38.79c-5.3,35.44,0,0,0,0
			s-6.98,30.42,18.98,44.09c0,0,67.81,8.09,93.49,107.72c0,0,13.27,64.4,43.26,72l-1.99,3.63c0,0-4.43,62.51,69.52,68.93
			c0,0,93.77,10.33,126.14-22.33c0,0,20.72-8.82,24.59-40.97s0,0,0,0l22.85-22.38c0,0,21.77-12.84,33.21-103.81s0,0,0,0
			s4.13-45.95,41.58-77.86c0,0,127.53-111.35,27.91-133.95c0,0-41.86,6.98-56.37,43.53c0,0-30.7,45.77-36.84,50.51
			c-6.14,4.74,0,0,0,0l-7.81,1.12c0,0-24.68-9.47-37.95-8.37s0,0,0,0l-20.93-21.49c0,0-23.16-13.67-52.74-9.21c-29.58,4.47,0,0,0,0
			l-24.84-22.33c0,0-39.63-24.86-80.09,19.1s0,0,0,0S378.72,391.28,382.95,438.16z"/>
		<g>
			<path class="st6" d="M411.45,351.22c0,0-2.23,18.29,5.02,23.31s0,0,0,0S396.69,412.3,419.7,443c0,0-16.25,55.07-13.09,67.16
				c0,0,21.95,55.81,76.28,16.19c0,0,34.23-99.72,30.51-128.56l8.56-11.35c0,0,32.56,72.74-25.49,157.21c0,0,35.35,17.49,53.21-29.4
				l34.23-94.51l4.09,4.09c0,0,7.07,40.56-10.42,90.05c0,0-10.42,29.08-12.65,32.96c0,0,39.44,9.46,59.16-44.49
				c0,0-6.7,62.51-53.95,63.26c0,0-19.82-0.59-27.16-11.91c0,0-28.65,29.89-62.51-2.54c0,0-24.19,31.19-78.51-2.67
				c0,0-18.6-18.6-12.65-58.05c0,0,5.58-30.14,4.47-44.65c0,0-3.72-65.12,5.21-76.65L411.45,351.22z"/>
			<path class="st6" d="M244.57,376.95c0,0-17.49,37.21,13.77,51.35c0,0,76.65,12.28,85.58,36.84c0,0,10.42,7.44,17.49,80
				c0,0,15.45,70.98,74.05,77.77c0,0,51.61,5.58,64.5,0s0,0,0,0l17.54-14.51c0,0,77.84,60.65,131.11-48c0,0-2.54,53.58-44.78,72.93
				l-0.34,3.03c0,0-4.2,26.25-12.81,32.63c0,0-61.07-1.38-79.68-22.85c0,0-18.7,13.61-66.84,19.56c0,0-26.93,7.07-9.81,25.3
				c0,0-49.37-0.74-51.1-60.28c-1.74-59.53,0,0,0,0s-10.67-13.02-13.64-14.51c0,0-31.63-33.49-40.56-101.21
				c0,0-37.21-56.93-86.7-72.19C242.34,442.81,210.71,407.83,244.57,376.95"/>
			<path class="st6" d="M659.83,513.14c0,0-16-70.7,47.63-138.05c0,0,62.88-35.88,27.91-73.67c0,0,85.95,17.49-29.4,129.49
				C705.96,430.9,658.01,480.54,659.83,513.14z"/>
			<path d="M635.83,392.39c0,0,26.23-26.23,36.84-45.77c0,0,36.28-64.74,73.12-34.05c0,0,35.72,13.95-3.91,59.72
				c0,0-73.67,80.93-80.37,104.37c0,0-8.93,20.65-13.4,59.16c0,0-5.58,63.07-36.84,84.28c0,0-26.23,29.02-89.3,15.63
				c0,0,55.26,29.02,103.81-14.51c0,0,29.58-28.47,37.4-84.84c0,0,6.7-54.14,26.79-77.58l70.59-84.84c0,0,36.01-47.78-4.73-69.66
				c0,0-28.47-23.55-54.14-3.46c0,0-22.33,17.3-30.14,35.16C671.55,336.02,640.85,386.81,635.83,392.39z"/>
			<path d="M590.06,385.14c0,0,76.46-11.72,63.63,62.51c0,0-20.09,66.42-41.3,83.16c0,0-34.6,45.77-65.86,2.23
				c0,0,29.58,25.67,50.23-3.91c0,0,52.47-66.98,41.86-114.42C638.62,414.72,630.24,390.72,590.06,385.14z"/>
			<path d="M516.38,354.44c0,0,74.23-1.67,60.28,57.49c0,0-10.05,68.09-33.49,101.02c0,0-22.88,50.79-60.28,20.09
				c0,0,22.88,40.74,63.63,0c0,0,50.23-51.91,43.53-147.91C590.06,385.14,579.45,338.81,516.38,354.44z"/>
			<path d="M416.48,374.53c0,0-18.42,47.44,8.37,66.42c0,0-21.8,65.3-7.27,81.49c0,0,55.83,46.88,74.25-49.12
				c0,0,24.56-95.44,0-131.16c0,0-34.05-37.4-79.26,18.42c0,0-24,23.44-30.14,117.77c0,0-3.35-99.91-101.02-111.07
				c0,0-46.88,0.56-49.67,40.74c0,0-2.23,26.79,22.88,35.72c0,0,55.26,22.88,66.98,45.21c0,0,16.74,14.51,28.47,79.26
				c0,0,12.14,69.77,96,70.33c0,0,37.95-0.56,71.44-30.14c0,0-34.6,44.63-84.28,36.83c0,0-55.81-0.55-88.74-50.22
				c0,0-24-93.77-36.84-101.58c0,0-36.28-34.23-60.28-42.23c0,0-39.63-19.96-13.95-66.72c0,0,25.12-35.05,75.35-16.63
				c0,0,45.21,12.84,68.09,59.16c0,0,5.58-107.16,89.3-111.63c0,0,64.19-0.56,55.81,101.02c0,0-13.95,112.74-44.09,120
				c0,0-37.95,31.81-72.56-9.49c0,0-12.84-25.12,10.05-84.28C415.36,442.62,392.34,413.21,416.48,374.53z"/>
			<path d="M603.49,636.35c0,0,11.83,63.02-103.78,69.71c0,0-123.48,16.74-116.48-75.35c0,0-0.25,74.79,120.31,59.72
				C503.55,690.44,592.92,691.1,603.49,636.35z"/>
		</g>
	</g>
</g>
<g id="Layer_3" class="st0">
	<g class="st7">
		<path class="st4" d="M307.11,666.89c-1.83-2.92-5.03-4.68-8.47-4.68h-7.44c-3.84,0-7.34,2.2-9.01,5.65l-3.24,6.71l-0.17-2.95
			c-0.31-5.29-4.69-9.42-9.98-9.42h-18.4c-2.08,0-4.09,0.65-5.76,1.83c-1.63-1.15-3.62-1.83-5.76-1.83h-18.4
			c-2.1,0-4.12,0.66-5.8,1.86c-2.44-1.21-5.23-1.86-8.28-1.86h-31.04c-3.3,0-6.44,0.76-9.28,2.19c-1.76-1.4-3.95-2.19-6.24-2.19
			h-18.4c-2.12,0-4.12,0.67-5.76,1.83c-1.67-1.17-3.68-1.83-5.76-1.83h-18.4c-4.73,0-8.81,3.31-9.78,7.93l-11.68,55.2
			c-0.62,2.95,0.12,6.02,2.01,8.37s4.75,3.7,7.77,3.7h18.4c2.12,0,4.12-0.67,5.76-1.83c1.67,1.17,3.68,1.83,5.76,1.83h18.4
			c2.4,0,4.64-0.86,6.38-2.31c2.63,1.5,5.73,2.31,9.14,2.31h31.04c4.85,0,9.37-1.6,13.06-4.62c2.54-2.08,4.5-4.71,5.83-7.73
			l0.18,2.95c0.31,5.28,4.69,9.41,9.98,9.41h18.4c2.09,0,4.07-0.65,5.72-1.8c1.62,1.13,3.6,1.8,5.72,1.8H272
			c3.84,0,7.34-2.2,9.01-5.65l26.64-55.2C309.14,673.45,308.94,669.8,307.11,666.89z"/>
		<path class="st4" d="M551.27,667.29c-1.77-3.15-5.1-5.09-8.71-5.09h-7.44c-3.5,0-6.75,1.83-8.56,4.83l-3.55,5.87l-0.46-2.5
			c-0.87-4.75-5.01-8.2-9.84-8.2h-18.4c-0.99,0-1.96,0.16-2.88,0.44c-0.92-0.28-1.89-0.44-2.88-0.44h-18.4
			c-2.37,0-4.58,0.83-6.32,2.25c-1.73-1.41-3.94-2.25-6.32-2.25h-18.4c-2.4,0-4.64,0.86-6.38,2.31c-2.63-1.5-5.73-2.31-9.14-2.31
			h-31.04c-3.42,0-6.67,0.81-9.59,2.34c-1.78-1.49-4.05-2.34-6.41-2.34H359.2c-3.57,0-6.87,1.9-8.66,4.99l-3.51,6.07l-0.45-2.71
			c-0.81-4.82-4.98-8.35-9.86-8.35h-16.64c-4.73,0-8.81,3.31-9.78,7.93l-11.68,55.2c-0.62,2.95,0.12,6.02,2.01,8.37
			s4.75,3.7,7.77,3.7h6.88c2.25,0,4.35-0.75,6.04-2.03c1.69,1.28,3.79,2.03,6.04,2.03h7.52c2.13,0,4.17-0.68,5.84-1.88
			c1.68,1.21,3.72,1.88,5.84,1.88h18.32c1.3,0,2.54-0.26,3.69-0.71c1.16,0.46,2.4,0.71,3.67,0.71h18.4c2.12,0,4.12-0.67,5.76-1.83
			c1.67,1.17,3.68,1.83,5.76,1.83h18.4c1.21,0,2.37-0.22,3.45-0.61c1.09,0.4,2.25,0.61,3.43,0.61h18.4c2.37,0,4.58-0.83,6.32-2.25
			c1.73,1.41,3.94,2.25,6.32,2.25h18.4c4.73,0,8.81-3.31,9.78-7.93l4.28-20.25l0.14,0.75l-3.27,15.34
			c-0.63,2.95,0.11,6.03,2.01,8.38c1.9,2.35,4.75,3.71,7.77,3.71h18.32c4.72,0,8.8-3.3,9.78-7.92l3.33-15.63l22.08-36.48
			C552.98,674.29,553.04,670.44,551.27,667.29z"/>
		<path class="st4" d="M953.77,668.33c-3.15-3.95-7.99-6.12-13.62-6.12h-31.04c-4.58,0-8.85,1.43-12.42,4.13
			c-2.45-2.16-6.19-4.13-11.73-4.13h-31.04c-4.59,0-8.88,1.45-12.46,4.18c-3.04-2.7-7.09-4.18-11.7-4.18h-39.68
			c-0.99,0-1.94,0.15-2.85,0.42c-0.91-0.27-1.86-0.42-2.83-0.42h-30.48c-4.57,0-8.84,1.44-12.41,4.14
			c-2.45-2.17-6.19-4.14-11.75-4.14h-31.04c-3.3,0-6.44,0.76-9.28,2.19c-1.76-1.4-3.95-2.19-6.24-2.19h-18.4
			c-2.37,0-4.58,0.83-6.32,2.25c-1.73-1.41-3.94-2.25-6.32-2.25h-18.4c-1.21,0-2.37,0.22-3.45,0.62c-1.09-0.4-2.25-0.62-3.43-0.62
			h-18.4c-0.97,0-1.92,0.15-2.82,0.41c-0.9-0.26-1.83-0.41-2.78-0.41H572.4c-4.85,0-9.36,1.6-13.06,4.62
			c-3.63,2.97-6.11,7.06-7.18,11.83c-0.01,0.04-9.87,46.68-9.87,46.68c-0.62,2.95,0.12,6.02,2.02,8.37c1.9,2.34,4.75,3.7,7.77,3.7
			h18.4c4.72,0,8.8-3.31,9.78-7.93l3.44-16.23h5.87l-2.56,12.09c-0.62,2.95,0.12,6.02,2.01,8.37s4.75,3.7,7.77,3.7h18.4
			c1.21,0,2.37-0.22,3.45-0.61c1.09,0.4,2.25,0.61,3.43,0.61h18.4c2.37,0,4.58-0.83,6.32-2.25c1.73,1.41,3.94,2.25,6.32,2.25h18.4
			c2.4,0,4.64-0.86,6.38-2.31c2.63,1.5,5.73,2.31,9.14,2.31h31.04c4.59,0,8.87-1.45,12.44-4.16c3.05,2.69,7.11,4.16,11.72,4.16
			h30.48c0.99,0,1.94-0.15,2.85-0.42c0.91,0.27,1.86,0.42,2.83,0.42h18.4c2.12,0,4.12-0.67,5.76-1.83c1.64,1.15,3.63,1.83,5.76,1.83
			h18.4c2.35,0,4.6-0.84,6.38-2.32c2.62,1.51,5.72,2.32,9.14,2.32h31.04c4.85,0,9.37-1.6,13.06-4.62c3.63-2.97,6.11-7.06,7.18-11.82
			c0.01-0.05,2.9-13.84,2.9-13.84c0.78-3.55,0.58-6.52-0.08-8.95c0.26,0.02,0.52,0.04,0.79,0.04h5.44
			c-0.53,0.91-0.92,1.92-1.15,2.99l-1.44,6.88c-0.29,1.39-0.28,2.8,0.01,4.15c-0.85,1.14-1.47,2.47-1.77,3.94l-1.92,9.2
			c-0.62,2.95,0.13,6.01,2.03,8.35c1.9,2.34,4.75,3.69,7.76,3.69h13.76c4.74,0,8.82-3.32,9.79-7.96c0,0,1.94-9.28,1.94-9.32h0.59
			c4.85,0,9.37-1.6,13.06-4.62c3.62-2.97,6.11-7.06,7.18-11.82c0.01-0.05,4.34-20.72,4.34-20.72
			C958.29,675.89,955.99,671.11,953.77,668.33z"/>
	</g>
	<g class="st7">
		<path class="st3" d="M143.27,722.24h-18.4l3.68-17.28h-11.52l-3.68,17.28h-18.4l11.68-55.2h18.4l-6.56,31.04h11.52l6.56-31.04
			h18.4L143.27,722.24z"/>
		<path class="st3" d="M200.31,713.6c-0.59,2.61-1.84,4.71-3.76,6.28s-4.16,2.36-6.72,2.36h-31.04c-2.61,0-4.55-0.79-5.8-2.36
			s-1.59-3.67-1-6.28l8-37.92c0.59-2.61,1.84-4.71,3.76-6.28s4.16-2.36,6.72-2.36h31.04c2.61,0,4.55,0.79,5.8,2.36s1.59,3.67,1,6.28
			L200.31,713.6z M178.79,673.92l-8.8,41.44h11.52l8.8-41.44H178.79z"/>
		<path class="st3" d="M267.11,722.24h-18.4l-1.2-21.2l-10.24,21.2h-18.4l-3.28-55.2h18.4l2.4,41.44l10.32-21.28l-1.2-20.16h18.4
			l2.4,41.44l20-41.44h7.44L267.11,722.24z"/>
		<path class="st3" d="M359.98,722.24h-18.32l6.8-32l-18.48,32h-7.52l-5.28-32l-6.8,32h-6.88l11.68-55.2h16.64l5.04,30.16
			l17.44-30.16h17.36L359.98,722.24z"/>
		<path class="st3" d="M415.66,722.24h-18.4l3.68-17.28h-11.52l-3.68,17.28h-18.4l9.84-46.56c0.59-2.61,1.84-4.71,3.76-6.28
			s4.16-2.36,6.72-2.36h31.04c2.61,0,4.55,0.79,5.8,2.36s1.59,3.67,1,6.28L415.66,722.24z M395.98,673.92l-5.12,24.16h11.52
			l5.12-24.16H395.98z"/>
		<path class="st3" d="M471.98,722.24h-18.4l-5.28-34.64l-7.36,34.64h-18.4l11.68-55.2h18.4l5.28,34.72l7.36-34.72h18.4
			L471.98,722.24z"/>
		<path class="st3" d="M514.7,704.96l-3.68,17.28H492.7l3.68-17.28l-6.96-37.92h18.4l5.2,28.48l17.2-28.48h7.44L514.7,704.96z"/>
		<path class="st3" d="M596.54,673.92h-20.72l-3.68,17.28h16.08l-1.44,6.88H570.7l-5.12,24.16h-18.4l9.84-46.56
			c0.59-2.61,1.84-4.71,3.76-6.28s4.16-2.36,6.72-2.36h30.48L596.54,673.92z"/>
		<path class="st3" d="M610.3,722.24h-18.4l11.68-55.2h18.4L610.3,722.24z"/>
		<path class="st3" d="M666.62,722.24h-18.4l-5.28-34.64l-7.36,34.64h-18.4l11.68-55.2h18.4l5.28,34.72l7.36-34.72h18.4
			L666.62,722.24z"/>
		<path class="st3" d="M682.14,722.24c-2.61,0-4.55-0.79-5.8-2.36s-1.59-3.67-1-6.28l8-37.92c0.59-2.61,1.84-4.71,3.76-6.28
			s4.16-2.36,6.72-2.36h31.04c2.61,0,4.55,0.78,5.8,2.33s1.59,3.63,1,6.23l-1.52,7.44h-18.4l1.92-9.12h-11.52l-8.8,41.44h11.52
			l2.48-11.52h-6.96l1.44-6.88h25.36l-3.52,16.64c-0.59,2.61-1.84,4.71-3.76,6.28s-4.16,2.36-6.72,2.36H682.14z"/>
		<path class="st3" d="M737.34,722.24c-2.61,0-4.55-0.79-5.8-2.36s-1.59-3.67-1-6.28l8-37.92c0.59-2.61,1.84-4.71,3.76-6.28
			s4.16-2.36,6.72-2.36h30.48l-1.44,6.88h-20.72l-3.68,17.28h16.08l-1.44,6.88h-16.08l-3.68,17.28h20.72l-1.44,6.88L737.34,722.24
			L737.34,722.24z"/>
		<path class="st3" d="M821.82,722.24h-18.4l-2.64-17.28h-5.2l-3.68,17.28h-18.4l11.68-55.2h39.68c2.61,0,4.53,0.79,5.76,2.36
			s1.55,3.67,0.96,6.28l-4.32,20.64c-0.48,2.24-1.45,4.09-2.92,5.56s-3.21,2.41-5.24,2.84L821.82,722.24z M802.14,673.92
			l-5.12,24.16h11.44l5.12-24.16H802.14z"/>
		<path class="st3" d="M874.94,691.2c2.61,0,4.55,0.79,5.8,2.36s1.59,3.67,1,6.28l-2.88,13.76c-0.59,2.61-1.84,4.71-3.76,6.28
			s-4.16,2.36-6.72,2.36h-31.04c-2.61,0-4.53-0.79-5.76-2.36s-1.57-3.67-1.04-6.28l1.52-7.44h18.4l-1.92,9.2h11.52l3.68-17.28
			h-21.28c-2.61,0-4.55-0.79-5.8-2.36s-1.59-3.67-1-6.28l2.88-13.76c0.59-2.61,1.84-4.71,3.76-6.28s4.16-2.36,6.72-2.36h31.04
			c2.61,0,4.55,0.78,5.8,2.33s1.59,3.63,1,6.23l-1.52,7.44h-18.4l1.92-9.12h-11.52l-3.68,17.28H874.94z"/>
		<path class="st3" d="M906.3,698.08h12.64l5.12-24.16h-11.52l-1.92,9.12h-18.4l1.52-7.44c0.59-2.6,1.84-4.67,3.76-6.23
			s4.16-2.33,6.72-2.33h31.04c2.61,0,4.55,0.79,5.8,2.36s1.59,3.67,1,6.28l-4.32,20.64c-0.59,2.61-1.84,4.71-3.76,6.28
			s-4.16,2.36-6.72,2.36h-22.4L906.3,698.08z M914.94,722.24h-13.76l1.92-9.2h13.76L914.94,722.24z"/>
	</g>
</g>
<g>
	<path d="M113.67,511.62c3.66,0.39,6.72,1.76,9.17,4.14c2.46,2.37,3.88,5.31,4.29,8.8l3.26,28.97l24.19,2.28l2.92,25.13l-77.25-7.19
		l-6.3-54.19c-0.42-3.57,0.35-6.33,2.3-8.3c1.95-1.96,4.76-2.75,8.42-2.36L113.67,511.62z M86.95,549.5l33.81,3.16l-1.83-15.73
		l-33.81-3.16L86.95,549.5z"/>
	<path d="M154.18,442.99l-2.32,25.19l-23.2-7.22l-1.45,15.77l23.2,7.22l-2.32,25.19L85.58,489.8c-3.5-1.13-6.21-3.11-8.12-5.94
		c-1.91-2.83-2.71-5.99-2.38-9.5l3.91-42.5c0.33-3.58,1.65-6.12,3.96-7.64c2.31-1.52,5.22-1.71,8.72-0.58L154.18,442.99z
		 M85.54,463.84l32.43,10.06l1.45-15.77l-32.43-10.06L85.54,463.84z"/>
	<path d="M161.68,411.95l-6.06,24.56l-69.85-33.77l6.06-24.56L161.68,411.95z"/>
	<path d="M124.08,318.89l38.46,58.25l10.23-26.47l8.11,5.26L161.53,406l-8.13-5.26l-38.55-58.29l-10.23,26.47l-8.11-5.26
		l19.35-50.07L124.08,318.89z"/>
	<path d="M139.24,241.74c1.1,1.29,2.09,2.69,2.95,4.22c0.87,1.53,1.5,3.12,1.89,4.79c0.39,1.67,0.51,3.33,0.34,4.99
		c-0.17,1.67-0.73,3.28-1.7,4.84c-0.73,1.18-1.53,2.13-2.4,2.84c-0.87,0.71-1.75,1.36-2.62,1.94c-0.88,0.58-1.69,1.13-2.45,1.66
		c-0.75,0.53-1.38,1.19-1.88,2c-0.5,0.81-0.72,1.76-0.65,2.83c0.07,1.08,0.41,2.02,1.03,2.83l-3.76,6.08
		c-1.1-1.28-2.07-2.68-2.91-4.19c-0.84-1.51-1.45-3.09-1.84-4.76c-0.39-1.67-0.51-3.33-0.34-4.99c0.17-1.66,0.71-3.25,1.64-4.74
		c0.73-1.19,1.54-2.15,2.43-2.89c0.89-0.74,1.77-1.4,2.65-1.98c0.88-0.58,1.69-1.13,2.45-1.66c0.76-0.52,1.38-1.19,1.88-2
		c0.54-0.87,0.75-1.84,0.63-2.91c-0.12-1.06-0.49-2-1.1-2.82L139.24,241.74z M215.99,294.35l-13.3,21.52l-17.55-16.8l-8.33,13.47
		l17.55,16.8l-13.3,21.52l-47.34-45.17c-2.63-2.57-4.17-5.55-4.63-8.94c-0.45-3.38,0.25-6.57,2.1-9.57l22.44-36.31
		c1.89-3.06,4.21-4.75,6.95-5.08c2.75-0.33,5.44,0.8,8.07,3.37L215.99,294.35z M145.25,282.43l24.56,23.45l8.33-13.47l-24.56-23.45
		L145.25,282.43z"/>
	<path d="M257.22,230.58c2.04,3.06,2.94,6.3,2.69,9.7c-0.25,3.4-1.6,6.38-4.02,8.93l-29.44,30.9c-2.48,2.6-5.1,3.78-7.85,3.54
		c-2.75-0.24-5.16-1.9-7.2-4.96l-30.16-43.93c-2.04-3.06-2.94-6.3-2.69-9.7c0.26-3.4,1.6-6.38,4.02-8.93l29.44-30.9
		c2.48-2.6,5.1-3.78,7.85-3.54c2.75,0.25,5.16,1.9,7.2,4.96L257.22,230.58z M197.31,214.37l32.91,48.06l10.93-11.47l-32.91-48.06
		L197.31,214.37z"/>
	<path d="M355.72,180.44l-22.25,12.04l-15.33-24.85l1.49,32.34l-22.25,12.04l-40.09-64.6l22.25-12.04l30.02,48.54l-1.45-32.49
		l-14.65-23.59l22.25-12.04l30.03,48.54l-2.94-63.2l9-4.87L355.72,180.44z"/>
	<path d="M441.49,154.2l-24.57,6.03l-0.75-24.28l-15.38,3.77l0.75,24.28l-24.57,6.03l-2.11-65.4c-0.07-3.68,0.92-6.89,2.96-9.62
		c2.05-2.73,4.78-4.52,8.2-5.35l41.45-10.17c3.49-0.86,6.33-0.44,8.52,1.25c2.19,1.69,3.32,4.38,3.39,8.06L441.49,154.2z
		 M399.38,96.12l1.08,33.94l15.38-3.77l-1.08-33.94L399.38,96.12z"/>
	<path d="M515.59,137.56c-0.69,3.62-2.31,6.55-4.88,8.8c-2.57,2.25-5.61,3.44-9.13,3.55l-54.53,1.83l13.51-76.39l54.53-1.83
		c3.59-0.12,6.28,0.87,8.08,2.98c1.79,2.1,2.35,4.97,1.66,8.58L515.59,137.56z M484.19,84.03L474,141.38l15.83-0.53l10.19-57.35
		L484.19,84.03z"/>
	<path d="M531.37,150.89c-3.55-0.55-6.01-2.03-7.38-4.43s-1.38-5.32-0.03-8.74l18.89-49.83c1.35-3.43,3.49-6.01,6.44-7.74
		c2.94-1.73,6.15-2.33,9.63-1.79l41.41,6.44l-3.41,9.04l-28.15-4.38l-8.65,22.7l21.85,3.4l-3.41,9.04l-21.85-3.4l-8.65,22.7
		l28.15,4.38l-3.41,9.04L531.37,150.89z"/>
</g>
</svg>
